<svg xmlns="http://www.w3.org/2000/svg" viewBox="0 0 243 60" width="243" height="60">
	<defs>
		<clipPath clipPathUnits="userSpaceOnUse" id="cp1">
			<path d="M0 0L243 0L243 60L0 60Z" />
		</clipPath>
	</defs>
	<style>
		tspan { white-space:pre }
		.shp0 { fill: #506a85 } 
	</style>
	<g id="Page 1" clip-path="url(#cp1)">
		<path id="Path 1" class="shp0" d="M229.11 60L242.56 60L242.56 46.56L229.11 46.56L229.11 60ZM205.37 33.01L181.09 0L165.18 0L165.18 60L180.65 60L180.65 25.28L206 60L220.92 60L220.92 0L205.37 0L205.37 33.01ZM50.88 19.97C50.88 8.81 43.33 0 30.03 0L0 0L0 13.49L27.69 13.49C31.73 13.49 35.15 15.83 35.15 19.88C35.15 24.11 31.73 26.36 27.69 26.36L0 26.36L0 60L15.46 60L15.46 39.85L23.37 39.85L33.44 60L51.15 60L38.93 37.96C44.5 35.98 50.88 30.4 50.88 19.97ZM59.56 60L103.52 60L103.52 46.51L75.02 46.51L75.02 36.34L102.89 36.34L102.89 22.85L75.02 22.85L75.02 13.49L103.52 13.49L103.52 0L59.56 0L59.56 60ZM112.37 60L156.33 60L156.33 46.51L127.83 46.51L127.83 36.34L155.7 36.34L155.7 22.85L127.83 22.85L127.83 13.49L156.33 13.49L156.33 0L112.37 0L112.37 60Z" />
	</g>
</svg>